<svg width="32" height="32" viewBox="0 0 32 32" fill="none" xmlns="http://www.w3.org/2000/svg">
<path d="M11.708 0.201191C14.4868 0.986794 16.991 3.1472 18.752 6.27325C19.4629 7.53349 20.6746 10.8232 20.6907 11.527V11.9034H26.3454H32L31.903 11.4451C30.7075 6.04412 27.6217 1.9197 23.6635 0.397592C22.7426 0.0538902 22.4841 0.0375233 16.8133 0.00479031C11.5787 -0.0115767 11.0133 0.00479031 11.708 0.201191Z" fill="#1C64F2"/>
<path d="M8.41215 2.93445C5.29403 3.31089 2.33747 6.19144 0.915738 10.234C-0.376747 13.8838 -0.295967 18.6138 1.12577 22.2963C3.2099 27.7464 8.07287 30.4633 12.3865 28.5975C13.1136 28.2702 13.1297 28.2538 12.8712 27.8937C10.7871 25.0132 9.65617 22.1163 9.2038 18.5156C8.60602 13.7201 9.94698 8.05725 12.4835 4.63659C12.8066 4.19469 13.0489 3.78552 13.0166 3.72006C12.9035 3.54002 10.8356 2.93445 10.1085 2.86899C9.7531 2.83625 8.99377 2.85262 8.41215 2.93445Z" fill="#1C64F2"/>
<path d="M20.3999 21.5925C18.9621 26.7808 15.7793 30.5779 11.8857 31.7399C10.9163 32.0181 10.9648 32.0181 16.8941 31.9854L22.8718 31.9527L24.0351 31.4453C26.7493 30.2505 28.8173 28.1556 30.3682 25.0295C30.966 23.8348 31.8384 21.2325 31.8384 20.6433V20.2505H26.2969H20.7715L20.3999 21.5925Z" fill="#1C64F2"/>
</svg>
